<svg version="1.1" id="Layer_1" xmlns="http://www.w3.org/2000/svg" x="0" y="0" viewBox="0 0 842.79 44.76" style="enable-background:new 0 0 842.79 44.76" xml:space="preserve"><style>.st0{fill-rule:evenodd;clip-rule:evenodd;fill:#A6A6A6}</style><path class="st0" d="M71.24 9v8.97H588.7l21.65.08c.27-.03 180.06-.08 180.27-.08l.07-8.97H71.24zm715.72 5.63c0 .56-453.45.42-459.92.28-6.48-.14-176.26-.84-186.96-.7-10.7.14-65.98.56-66.83.42-.84-.14-.28-3.8-.42-4.22-.14-.42 2.21-.23 4.46-.23 0 0 708.12.8 709.1.8.99-.01.57 3.09.57 3.65zM794.81 20.85c-4.16-5.96 2.16-12.21 8.08-7.87 4.12 5.95-2.18 12.16-8.08 7.87zm7.75-5.24c-.19-.52-.25-1.15-.58-1.56-1.71-2.1-5.33-1.81-6.71.51-.12.19-.19.51-.11.7.33.82.63 1.68 1.13 2.39.66.94 1.72 1.41 2.84 1.27 1.09-.14 2.03-.75 2.75-1.62.4-.47.65-1 .68-1.69zM799.07 6.14h4.71c.89 0 1 .11 1.01.98.01.77.02 1.54 0 2.31-.02.64-.18.81-.83.81-3.49.01-6.98.01-10.47 0-.04-1.36-.04-2.72 0-4.09 1.86-.02 3.72-.01 5.58-.01zm-2.96 2.36h7.48V7.32c-1.77-.17-7.35-.1-8 .11l.52 1.07zM8.17 15.74c2.77-1.94 6.05-5.35 6.76-6.62s.13-2.53-1.56-1.12-5.35 3.8-6.62 6.48-1.4 3.23 1.42 1.26zM13.09 13.91c-2.92 2.58-4.79 3.94-6.05 5.63-1.27 1.69-.56 2.25 1.69.7s3.94-3.1 5.63-4.79 1.13-3.65-1.27-1.54z"/><path class="st0" d="M72.64 6.17c0-4.79-3-4.51-5.28-4.51H48.01c-4.22 0-37.17-.28-42.66 0C-.14 1.94 0 6.17 0 8c0 1.36.22 18.91.44 20.41L1 33.34c.08.3.14.55.2.79.51 2.02 1.52 3.75 3.05 5.18 2.04 1.9 4.48 2.8 7.25 2.86.85.02 1.71 0 2.67 0l3.41.02c1.25-.04 2.36-.06 3.47-.11 3.46-.14 6.92-.3 10.37-.44.71-.03 1.43-.05 2.14-.05 5.52.01 11.04.01 16.57.03 1.86.01 3.72.15 5.58.09 2.28-.07 4.56-.27 6.84-.47 1.01-.09 4.46-1.45 4.98-1.75.93-.56 2.11-1.83 2.72-2.72 1.59-2.32 2.53-4.97 2.35-7.41 0-.01.04-18.41.04-23.19zM69.7 29.36c-.01 4.23-2.94 7.96-7 9.01-.13.03-.26.05-.55.1 1.2-1.84 2.32-3.55 3.5-5.35-.27-.04-.45-.09-.63-.1-1.37-.01-2.75.02-4.12-.01-.49-.01-.78.14-1.05.56-.97 1.52-1.99 3.01-2.95 4.53-.28.43-.58.62-1.1.61-1.91-.03-3.83-.01-5.91-.01.58-1.04 1.21-1.9 1.79-2.8.58-.91 1.18-1.81 1.84-2.82-.34-.02-.56-.05-.77-.05-1.32 0-2.63.03-3.95-.02-.57-.02-.87.19-1.16.65-.96 1.52-1.97 3.02-2.96 4.52-.17.26-.31.52-.71.52-2.03-.02-4.06-.01-6.27-.01 1.26-1.92 2.43-3.71 3.68-5.62-.37-.02-.58-.04-.8-.04-1.34 0-2.69.02-4.03-.01-.46-.01-.73.15-.97.53-.99 1.54-2.02 3.05-3 4.6-.26.41-.54.58-1.03.57-1.74-.03-3.49-.01-5.24-.01-.19 0-.38-.03-.72-.05 1.22-1.87 2.39-3.65 3.54-5.41-.03-.07-.04-.1-.05-.12l-.05-.05h-5.21c-.14.2-.32.42-.47.65-.96 1.46-1.94 2.9-2.87 4.38-.27.43-.56.64-1.09.63-1.74-.03-3.49-.01-5.24-.01-.19 0-.38-.03-.7-.06 1.22-1.87 2.39-3.65 3.61-5.52-.28-.04-.46-.09-.64-.09-1.4-.01-2.8.01-4.21-.01-.42-.01-.68.14-.9.49-.64 1.02-1.32 2.01-1.98 3.01-.12.19-.26.36-.44.61-.35-.24-.7-.43-1-.68-2.15-1.81-3.66-4.01-4-6.86-.2-1.7-.34-3.4-.52-5.14 0 0 .06-11.32-.04-14.42s1.13-4.41 6.1-4.6 54.25 0 56.12 0c1.88 0 3.88.2 4.14 4.46.42 6.44.03 12.95.01 19.44z"/><path class="st0" d="M101.7 20.65c.53-.31 1.22-.65 1.78-.57l.84-1.94s-1.46-.33-1.52-.81v-.93c-10.03.03-20.05.03-30.08-.01 0 0-2.94 1.4-1.3 1.4h1.09c-.02.72-.6.75-1.02 1.06.06.43.13.89.19 1.32 1.81.4 2.04 1.58.72 2.74l.46 1.14c1.95.16 2.4.91 1.44 2.47.25.34.53.71.78 1.05 1.89-.41 2.56.25 2.01 2 .33.26.69.55 1.07.86.15-.09.27-.17.39-.24 1.13-.63 1.77.04 2.04 1.31l1.23.72c-.03-.42.44-.57 1.07-.7.53-.11 1.05.07 1.32.54.16.28.22.6.35.96.18.03.39.07.6.11.21.04.42.07.69.11.35-.54.59-1.23 1.38-1.24.79-.01 1.13.55 1.39 1.23.47-.06.89-.12 1.37-.19.17-.62.24-1.33 1.02-1.51.74-.18 1.26.16 1.61.81.49-.19.89-.35 1.35-.53-.05-.68-.13-1.37.57-1.76.68-.38 1.25-.04 1.79.37.38-.29.73-.56 1.12-.86-.25-.64-.44-1.28.11-1.83.52-.51 1.11-.45 1.78-.08.3-.39.59-.74.85-1.08-.9-1.71-.48-2.46 1.41-2.5.16-.35.33-.74.53-1.17-.23-.25-.47-.46-.65-.72-.36-.51-.32-1.22.22-1.53zm-25.9 1.04c-.25-1.2-.48-2.24-.73-3.41h3.16c.15.64.31 1.33.49 2.11-.92.42-1.81.81-2.92 1.3zm2.26 3.72c-.5-.72-1.03-1.48-1.61-2.33 1.02-.45 1.91-.84 2.88-1.27.35.49.68.95 1.05 1.47-.77.7-1.5 1.38-2.32 2.13zm4.55 2.09-.32.94-1.42-.67-1.56-1.12 1.56-1.36.68-.76.86.6.96.44c-.27.69-.52 1.31-.76 1.93zm3.92 1.99c-.98.1-1.86-.15-2.85-.47.37-.97.72-1.89 1.09-2.88.61.11 1.17.2 1.75.31v3.04zm1.64.14v-3.17c.63-.15 1.29-.3 2.09-.48.41.93.81 1.84 1.28 2.92-1.18.25-2.23.48-3.37.73zm4.76-1.38c-.46-1.05-.86-1.96-1.28-2.9.5-.36.94-.67 1.45-1.04.67.73 1.32 1.45 2.12 2.32-.71.51-1.43 1.02-2.29 1.62zm3.64-2.93c-.8-.78-1.5-1.47-2.27-2.22.31-.48.67-1.05 1.1-1.7.94.37 1.86.73 2.95 1.16-.65 1.01-1.22 1.9-1.78 2.76zm2.23-4.24c-.97-.37-1.89-.73-2.86-1.1.11-.61.2-1.13.31-1.72h2.99c.15.97-.09 1.84-.44 2.82zM835.36 25.59c-2.22-.51-4.38-.32-6.44.67-2.71 1.3-4.41 3.46-5.29 6.34-1.79 0-3.53-.02-5.28.01-.5.01-.86-.15-1.22-.48-1.13-1.02-2.28-2-3.42-2.99-.17-.15-.38-.25-.51-.33.13-.38.19-.57.26-.75.49-1.37.29-2.57-.83-3.59-.62-.55-1.17-1.18-1.77-1.75-.27-.26-.22-.56-.37-.9-1.08-2.44-2.71 1.93-2.71 1.93-.08.29-.11.54-.21.74-.67 1.25-2-.07-3.1.83 0 0-1.89.53-4.13 1.92-.32.2 2.9 2.78 3.19 3.08.59.63 1.22 1.21 1.81 1.83.59.61 1.3.94 2.16.84.64-.07 1.28-.23 1.98-.35.13.11.31.25.48.4 1.54 1.37 3.08 2.74 4.6 4.13.6.55 1.27.83 2.09.82 2.06-.02 4.12 0 6.18 0h.91c2.21 5.86 7.66 7.48 11.56 6.53 4.4-1.07 7.5-4.94 7.49-9.47 0-4.51-3.1-8.45-7.43-9.46zm-23.16 2.32c-.54.59-1.15 1.12-1.73 1.67-.08.08-.18.16-.28.19-.75.22-1.46-.03-2.18-.22-.5-.13-.88-.39-1.04-1 1.61-1.17 2.76-2.73 3.32-4.85.75.77 1.42 1.38 2.01 2.06.47.56.41 1.59-.1 2.15zm10.4 8.98c-1.57.01-3.14-.01-4.71.01-.4 0-.72-.1-.98-.41-.94-1.1-1.89-2.21-2.85-3.3-.44-.5-.57-1.02-.27-1.63.08-.17.14-.36.24-.65.55.47 1.1.84 1.52 1.33 1.04 1.18 2.29 1.64 3.86 1.46 1.09-.12 2.21-.02 3.39-.02.1 1.1.18 2.09.27 3.13-.16.03-.32.08-.47.08zm10.47 6.75c-4.23.06-8.58-3.3-8.61-8.64-.03-4.73 3.86-8.56 8.58-8.59 4.73-.02 8.7 3.87 8.66 8.6-.05 5.23-4.29 8.69-8.63 8.63z"/><path class="st0" d="M833.01 41.58c-2.8.13-6.51-2.16-6.5-6.56.01-4.12 3.41-6.6 6.62-6.55 3.61.05 6.53 2.97 6.5 6.59-.02 4.09-3.48 6.68-6.62 6.52zm1.8-7.33c.02-.21.03-.38.04-.54.04-.58.19-.82.53-.83.38-.01.53.24.54.89 0 .2-.02.4.01.6.03.16.08.35.19.44.71.55 1.44 1.08 2.16 1.62.77-2-.21-4.63-2.22-5.95a5.444 5.444 0 0 0-6.79.65c-1.5 1.45-2.14 4-1.32 5.33.38-.34.72-.76 1.15-1.01.77-.45 1.31-.95 1.11-1.95-.07-.35.18-.62.56-.6.33.01.5.24.51.58.01.25.03.5.05.81.41-.07.76-.13 1.18-.2v-1.41c0-.37-.01-.75.03-1.11.03-.32.24-.51.59-.49.31.02.46.22.49.5.03.25.02.51.02.77v1.77c.45.04.79.08 1.17.13zm-2.91 5.19c1.59-.14 2.73-1.04 3.57-2.41.06-.11.1-.31.04-.4-.41-.61-.77-1.3-1.62-1.39-1.85-.21-3.45.3-4.76 1.64-.51.52-.52.76-.03 1.32.73.81 1.66 1.18 2.8 1.24zM809.91 1.33c-.28-1.6-15.96-1.5-17.64-1.03-2.19.61-3.28 2.06-3.38 5.16-.09 3.1.38 13.14.38 15.86s-.09 5.91 3.19 5.91 10.61.28 12.2.19c1.6-.09 5.35.75 5.26-5.16-.11-5.91.27-19.33-.01-20.93zm-9.17 22.23c-1.24-.7-2.72-.62-3.97.05-2.75 1.45-6.31-1.18-5.44-4.64.84-3.35.91-6.92 0-10.25-.65-2.36 1.12-5.02 3.93-5 3.74.02 7.48-.06 11.21.11v10.1h-.01c0 2-.04 4 .01 6 .08 3.08-3.25 5.03-5.73 3.63zM34.89 7.6c4.06 0 8.12-.01 12.19 0 1.61 0 2.82.85 3.25 2.28.11.38.14.79.14 1.18.01 1.95-.01 3.89.01 5.84.03 3.06.08 6.12.12 9.18 0 .17 0 .34-.01.51-.1 1.82-.7 2.57-2.42 3.22-1.56.59-3.19.61-4.82.65-.11 0-.25.01-.34-.04-.69-.43-1.43-.24-2.17-.22-3.72.11-7.43.11-11.14-.2-2.19-.18-4.39-.3-6.59-.44-.11-.01-.23 0-.34-.01-1.99-.15-3.42-1.68-3.42-3.69-.01-4.98.04-9.95-.03-14.93-.02-1.57 1.29-3.35 3.38-3.34 4.06.04 8.12.01 12.19.01zm.02 20.48H46.5c.29 0 .57.01.86-.02 1.14-.1 1.94-.92 2.04-2.07.02-.23.01-.46.01-.69V11.48c0-.26.01-.52-.02-.77-.1-.97-.72-1.7-1.68-1.94-.33-.08-.68-.1-1.02-.1-7.87-.01-15.73 0-23.6 0-.2 0-.4-.01-.6.01-1.03.11-1.8.76-2.02 1.71-.06.25-.05.51-.05.77v14.42c0 .17-.01.34.01.51.1 1.01.86 1.81 1.87 1.95.31.04.63.04.94.04h11.67zM59.64 24.44c0 1.23.01 2.46 0 3.69-.01.78-.12.89-.9.89-1.29.01-2.57.01-3.86 0-.68-.01-.8-.13-.81-.81-.01-2.55-.01-5.09 0-7.64 0-.67.15-.81.81-.82 1.32-.01 2.63-.01 3.95 0 .65.01.81.16.81.82.01 1.3 0 2.59 0 3.87zm-2.1 1.47c.1-1.71.2-3.34.3-4.97h-2.61v4.75c.78.07 1.5.14 2.31.22zM54.06 12.43c0-1.23-.01-2.46 0-3.69.01-.78.11-.88.9-.89 1.26-.01 2.52-.01 3.78 0 .77.01.89.12.9.91.01 2.49.01 4.98 0 7.46 0 .76-.14.89-.91.9-1.26.01-2.52.01-3.78 0-.76-.01-.88-.13-.89-.91-.01-1.26 0-2.52 0-3.78zm1.17 1.8c.99.34 1.69.01 2.2-.75.23-.35.43-.75.52-1.16.19-.83.3-1.68.43-2.52.04-.26.03-.54.05-.83h-3.2v5.26z"/><path class="st0" d="M34.73 26.48H23.58c-.23 0-.46.01-.69-.01-.33-.03-.52-.22-.56-.55-.02-.2-.02-.4-.02-.6V12.03c0-.17 0-.34.01-.51.02-.4.22-.64.64-.65.2-.01.4 0 .6 0h22.47c1.23 0 1.26.04 1.27 1.24v13.12c0 .17.01.34-.01.51-.05.55-.2.7-.73.74-.2.01-.4 0-.6 0H34.73zm10.29-2.39c.79-3.76 1.17-7.46 1.16-11.24-.23-.03-.36-.05-.5-.06-2.68-.17-5.36-.35-8.04-.49-1.74-.09-3.48-.21-5.22-.13-2.65.11-5.3.38-7.95.58-.22.02-.43.08-.7.14-.18 3.91.31 7.72.67 11.6 6.91.42 13.69.27 20.58-.4z"/></svg>