<svg version="1.1" id="Layer_1" xmlns="http://www.w3.org/2000/svg" x="0" y="0" viewBox="0 0 841.27 35.65" style="enable-background:new 0 0 841.27 35.65" xml:space="preserve"><style>.st0,.st1{fill-rule:evenodd;clip-rule:evenodd;fill:#A6A6A6}.st1{fill:#fff}</style><path class="st0" d="M24.32 19.36v8.97h561.99l21.65.08c.27-.03 217.51-.08 217.72-.08l.07-8.97H24.32zm797.69 5.63c0 .56-490.9.42-497.38.28-6.48-.14-176.26-.84-186.96-.7-10.7.14-110.51.56-111.36.42-.84-.14-.28-3.8-.42-4.22-.14-.42 9.01.28 11.26.28l784.28.28c.98 0 .58 3.1.58 3.66zM828.77 7.83c-.01-2.07 1.62-3.71 3.69-3.7a3.66 3.66 0 0 1 3.67 3.64c.01 2.04-1.67 3.74-3.7 3.73-2-.01-3.64-1.66-3.66-3.67zm5.33-1.92c-.88-.81-1.96-.93-2.97-.33-1 .6-1.41 1.64-1.09 2.77 2.22.65 3.57-.16 4.06-2.44zM832.42 21.49c-2.06-.01-3.68-1.68-3.64-3.75a3.675 3.675 0 0 1 3.71-3.61c2.01.02 3.65 1.66 3.66 3.67a3.702 3.702 0 0 1-3.73 3.69zm-.83-2.71c1.72-.04 2.22-.46 2.73-2.04.15-.48.01-.74-.35-1.01-1.15-.84-2.82-.57-3.63.61-.37.53-.64 1.16-.34 1.76.31.63.98.71 1.59.68z"/><path class="st0" d="M18.02 16.95H3.38c-1.83 0-3.38.56-3.38 1.55s.14 10.7.14 11.83c0 1.13 1.69.7 2.82.7s8.02.14 8.02.14V33c0 .56 1.27.7 2.67.7s9.15-.28 10.28-.28c1.13 0 .7-1.83.7-2.53s-.13-12.25-.13-13.1-.57-.84-6.48-.84z"/><path class="st1" d="M13.3 30.39c-.84 0-1.13.07-1.13.56v1.34c0 .21 1.34.14 1.97.14.63 0 8.02-.92 8.59-1.06.56-.14.56-1.13-.14-1.13s-9.29.15-9.29.15zM6.29 18.87c-1.7-.07-3.38-.09-3.66.09s-.75 1.22-.75 1.6c0 .38 0 6.95 1.13 7.32 1.13.38 7.98-.09 7.98-.09s-.19-2.35 1.5-3.85 3.47-.84 3.47-.84 4.5.38 5.26 0c.75-.38.84-3.38-.19-3.47s-12.3-.66-14.74-.76z"/><path class="st1" d="M14.36 24.27c-.53.19-1.62.99-1.69 1.9-.07.92 1.41.07 2.25-.28.85-.35 1.62-2.4-.56-1.62z"/><path class="st0" d="M4.74 19.97c.55 0 1 .45 1.01 1 .01.61-.51 1.08-1.18 1.06-.57-.02-.97-.44-.96-1.02.01-.59.5-1.04 1.13-1.04zM4.74 23.92c.55 0 1 .45 1.01 1 .01.61-.51 1.08-1.18 1.06-.57-.03-.97-.45-.96-1.03.01-.59.5-1.04 1.13-1.03zM841.26 3.32a3.538 3.538 0 0 0-3.51-3.31c-3.52-.01-7.04-.01-10.56 0-1.71 0-3.1 1.09-3.45 2.77-.14.69-.09 1.42-.12 2.13-.02.36-.02.72-.03 1.09l-.02 5.04v8.61l.05 5.05v1.01c0 2.12-.02 4.24.01 6.35.02 1.9 1.4 3.5 3.27 3.54 3.69.08 7.38.07 11.07.01 1.62-.03 2.9-1.25 3.23-2.84.07-.33.07-.68.07-1.02V3.85c0-.19.01-.36-.01-.53zm-15.06 7.35c.03-2.68.17-5.37.28-8.05.03-.75.06-.8.79-1 .41-.11.84-.2 1.26-.21 2.29-.01 4.57.01 6.86 0 .7 0 1.25.36 1.85.6 1.31.53 2.18 1.31 1.88 2.88.23 4.17.12 8.34-.07 12.51-.12 2.65-.32 5.3-.48 7.98-1.46.42-2.79.12-4.12-.03-1.68-.18-3.35-.37-5.02-.62-1.04-.16-2.06-.43-3.13-.66-.03-.43-.08-.8-.08-1.16-.01-4.06-.06-8.15-.02-12.24zm-1.06 22.41c-.44-.59-.51-1.23-.28-2.41h1.82c-.5.87-1.07 1.59-1.54 2.41zm6.83-1.97c-.66 1-1.35 1.99-2 3-.21.33-.45.47-.83.45-.51-.03-1.02-.01-1.7-.01.46-.74.86-1.35 1.24-1.97.39-.63.77-1.27 1.18-1.94h2.28c-.06.18-.09.34-.17.47zm-6.13-1.63c-.28-.63-.18-1.28-.02-1.97h12.62v1.97h-12.6zm10.06 4.61c-.19.32-.43.49-.83.47-.54-.03-1.08-.01-1.83-.01.8-1.34 1.49-2.52 2.21-3.68.08-.13.33-.23.5-.24.6-.03 1.19-.01 1.88-.01-.09.25-.13.44-.22.59-.56.97-1.14 1.92-1.71 2.88zm1.9.41c.77-1.21 1.47-2.31 2.19-3.46.58 1.65-.36 3.19-2.19 3.46zM176.35 23.57c-.14-3.86.43-9.59 6.44-9.45 6.01.14 5.72 7.16 5.58 9.88s1.14 10.3-6.01 9.45c-7.15-.86-5.86-5.87-6.01-9.88z"/><path class="st1" d="M184.37 16.27s-5.01-1.86-5.44 2.86 0 7.87 0 8.87c0 1 3.15 1.86 4.58 1.43l.86-13.16z"/></svg>