<svg version="1.1" id="Layer_1" xmlns="http://www.w3.org/2000/svg" x="0" y="0" viewBox="0 0 849.76 40" style="enable-background:new 0 0 849.76 40" xml:space="preserve"><style>.st0{fill-rule:evenodd;clip-rule:evenodd;fill:#A6A6A6}</style><path class="st0" d="M35.86 21.42c-.19-6.38-3-9.1-4.22-10.51-1.22-1.41-2.82-2.44-3.38-3.28-.56-.84-.1-4.42-1.03-5.44C26.3 1.16 21.88-.16 14.65.03 11.55.1 8.83.3 8.27 2.08S7.89 6.96 6.86 8C5.83 9.03-.27 13.54.01 21.98.29 30.43 5.55 39.91 18.12 40c12.58.09 17.93-12.2 17.74-18.58zM12.61 1.4c2.44-.75 8.89.68 10.58.96s1.84 1.87 1.31 1.78c-12.95-2.15-14.85.57-14.85.57.1-2.35.52-2.56 2.96-3.31zm8.76 35.44c-8 1.01-12.9-1.35-16.33-7.08-3.44-5.74-2.37-10.97.57-15.86s8.16-6.72 12.17-6.66c5.88.08 8 2.53 10.37 4.55 2.37 2.02 3.92 7.08 4.16 10.12.24 3.04-2.94 13.92-10.94 14.93z"/><path class="st0" d="M17.5 10.49c6.4.04 11.74 5.09 11.73 11.77-.02 6.94-5.69 11.79-11.83 11.73-6.52-.06-11.69-5.32-11.65-11.9.03-6.14 5-11.56 11.75-11.6zm9.32 13.49c.12-.79.23-1.51.33-2.23.07-.45.21-.91.17-1.35-.1-.95-.29-1.89-.45-2.83-.17-1.01-.65-1.79-1.52-2.4-1.96-1.36-3.91-2.68-6.41-2.79-.91-.04-1.83-.21-2.72-.13-2.05.17-3.96.87-5.7 1.96-1.02.63-1.82 1.47-2.2 2.69-.36 1.17-.62 2.34-.63 3.55-.01.75.01 1.51.13 2.25.07.43.31.87.61 1.19.16.17.59.12.9.12 1.41.01 2.83-.01 4.24.01.4.01.68-.12.96-.4 1.28-1.3 2.57-2.59 3.87-3.87.71-.7 1.61-.74 2.25-.13.66.63.63 1.57-.08 2.31-.52.54-1.06 1.06-1.59 1.6-.12.12-.22.26-.38.46 2.77-.01 5.45-.01 8.22-.01zM8.34 26.35c.29.71.63 1.3 1.13 1.77.72.67 1.47 1.3 2.23 1.91.24.19.56.31.86.37 1.91.36 3.84.44 5.78.42.2 0 .41-.04.6-.11 1.21-.42 2.35-1 3.4-1.73.49-.33 1.03-1.33 1.08-1.94-2.4-.36-13.45-.81-15.08-.69zm7.19-2.5c.01.05.03.1.04.16.49 0 .98.02 1.48-.01.14-.01.29-.12.4-.22.84-.83 1.68-1.66 2.51-2.51.36-.37.37-.73.06-1.01-.27-.25-.64-.24-.97.08-1.18 1.16-2.35 2.34-3.52 3.51z"/><path class="st0" d="M14.79 13.59c.55 0 1 .45 1.01 1 .01.61-.51 1.08-1.18 1.06-.57-.02-.97-.44-.96-1.02.01-.59.5-1.04 1.13-1.04zM20.64 13.8c.55 0 1 .45 1.01 1 .01.61-.51 1.08-1.18 1.06-.57-.02-.97-.44-.96-1.02.01-.59.5-1.04 1.13-1.04zM10.24 18.92c-.57 0-1.04-.48-1.02-1.04.02-.55.56-1.09 1.1-1.1.56 0 1.03.48 1.02 1.05-.02.58-.54 1.09-1.1 1.09zM24.63 16.78c.55 0 1.09.54 1.1 1.1.01.58-.46 1.05-1.04 1.04-.58-.01-1.05-.52-1.04-1.13.01-.57.43-1.01.98-1.01zM849.49 14.62c-.09-1.41-1.22-1.78-1.78-1.78s-2.07-.11-2.07-.11c-3.32-.02-6.64-.01-9.96-.01h-.6c-.92.01-.98.07-1 .96-.01.28-.03.55-.05.91h-3.48c-.96 0-1.26.2-1.62 1.09-.15.36-.26.74-.39 1.11v6.77c.15.43.27.84.43 1.23.28.67.74 1.06 1.52 1 .57-.04 1.14-.01 1.72-.01h1.86v1.21c0 .42.22.63.63.65.23.01.46.01.69.01 3.29 0 6.58.01 9.87-.01 0 0 1.97-.24 2.53-.34s1.13-.56 1.69-1.78.1-9.5.01-10.9zm-17 7.65c-.15.01-.23.02-.31.02-.93-.02-1.38-.57-1.52-1.42-.24-1.46-.49-2.93-.69-4.4-.08-.6.12-.79.7-.8.96-.02 1.93 0 2.94 0 .11 2.35-.5 4.48-1.12 6.6zm8.71 1.57c-2.07-.06-4-.11-5.99-.16v-8.92c2.21-.05 4.38.22 6.67.23-.23 2.99-.45 5.87-.68 8.85zm5.89-.01h-3.48v-8.72c1.17.07 2.29.14 3.41.2.19.63.25 7.28.07 8.52z"/><path class="st0" d="m828.97 25.03.07-8.97H611.25c0-.5-.03-.89.01-1.28.06-.55-.17-.9-.6-1.23-1.29-.99-2.55-2.03-3.84-3.04-.21-.17-.5-.33-.75-.33-1.37-.03-2.75-.03-4.12-.01-.58.01-.72.18-.76.8-.02.33 0 .67 0 1.01h-1.5c0-.34.01-.62 0-.9-.02-.77-.14-.91-.89-.92-1.26-.01-2.52 0-3.78-.01-.37 0-.65.1-.94.33-1.29 1.04-2.58 2.09-3.9 3.1-.43.33-.61.71-.57 1.25.03.38-.01.78-.03 1.23H34.93v8.97H589.6c.01.53.03 1 .02 1.48-.02.41.13.7.46.95 1.35 1.06 2.68 2.15 4.03 3.2.21.16.51.25.78.26 1.34.03 2.69.02 4.03.01.65-.01.75-.11.77-.74.02-.51 0-1.01 0-1.56h1.46c.01.46.03.91.04 1.35.02.87.1.95.93.96 1.26.01 2.52-.01 3.78.01.39.01.71-.1 1.01-.35 1.24-1.01 2.49-2.02 3.76-2.99.43-.33.64-.69.59-1.23-.04-.39-.01-.79-.01-1.24.27-.07 217.51-.11 217.72-.11zm-214.51-7.57c-.09-.42.92.28 2.4.28l208.82.28c.65 0 .37 3.1.37 3.66s-16.35.42-20.6.28c-4.25-.14-115.63-.84-122.65-.7-7.02.14-67.51.56-68.07.42-.55-.13-.18-3.79-.27-4.22zm-26.23 4.23c0 .56-253.83.42-260.3.28-6.48-.14-176.26-.84-186.96-.7-10.7.14-102.91.56-103.75.42-.84-.14-.28-3.8-.42-4.22-.14-.42 1.41.28 3.66.28l547.21.28c.99 0 .56 3.09.56 3.66zm5.82 6.71c-.85-.56-1.6-1.05-2.31-1.52-.09-1.88-.15-3.7-.28-5.52-.11-1.62-.27-3.24-.45-4.85-.22-1.97-.24-1.97 1.32-3.21.53-.42 1.06-.83 1.72-1.35V28.4zm4.45-4.2c-1.07.05-2.11.1-3.23.16v-2.48h3.23v2.32zm.01-4.51c-1.1.17-2.14.34-3.23.51v-8.86h3.23v8.35zm2.63 6.36c-.24.02-.46.06-.68.07-.22.01-.45 0-.72 0V14.13c.48.07.92.13 1.4.19v11.73zm4.5-2.13c-.54.19-2.23.25-3.3.11v-2.34h3.3v2.23zm.02-4.95c-1.1.1-2.17.2-3.22.3-.18-.68-.21-6.97-.04-7.94h3.27v7.64zm4.35-.45c-.15 2.28-.33 4.56-.46 6.84-.03.44-.17.74-.55.98-.69.45-1.36.94-2.05 1.41-.22-.6-.31-13.5-.11-15.83 1.11.89 2.12 1.67 3.09 2.49.16.13.23.45.23.68-.03 1.15-.08 2.29-.15 3.43z"/></svg>